# xmcd CD database file
#
# Track frame offsets:
#	150
#	15372
#	30831
#	47232
#	67649
#	82992
#	98664
#	115700
#	132746
#	149347
#	168385
#	184880
#	204075
#	220476
#
# Disc length: 3151 seconds
#
# Revision: 0
# Processed by: cddbd v1.5.2PL0 Copyright (c) Steve Scherf et al.
# Submitted via: Feurio! 1.68 - http://www.feurio.com
#
DISCID=b30c4d0e
DTITLE=Lemar - Time to Grow
DYEAR=1900
DGENRE=
TTITLE0=Soulman
TTITLE1=Better Than This
TTITLE2=I Dont Mind That
TTITLE3=What If
TTITLE4=Call Me Daddy
TTITLE5=Justice (Radio Edit)
TTITLE6=Dont Give It Up
TTITLE7=Time To Grow
TTITLE8=Complicated Cupid
TTITLE9=Feels Right
TTITLE10=Maybe Just Maybe
TTITLE11=All I Ever Do (my boo part 2)
TTITLE12=I Believe In A Thing Called Love (bonus)
TTITLE13=Vertigo (bonus)
EXTD=
EXTT0=
EXTT1=
EXTT2=
EXTT3=
EXTT4=
EXTT5=
EXTT6=
EXTT7=
EXTT8=
EXTT9=
EXTT10=
EXTT11=
EXTT12=
EXTT13=
PLAYORDER=
